<svg xmlns="http://www.w3.org/2000/svg" xmlns:xlink="http://www.w3.org/1999/xlink" width="1170" height="223" xmlns:v="https://vecta.io/nano"><style><![CDATA[.B{fill:#0f6077}.C{fill:#6e8c95}.D{opacity:.75}.E{fill:url(#C)}.F{font-size:42px}.G{font-family:SegoeUI-Bold, Segoe UI}.H{font-weight:700}.I{font-size:18px}.J{font-family:SegoeUI, Segoe UI}]]></style><defs><linearGradient id="A" y1=".5" x2="1" y2=".5"><stop offset="0"/><stop offset=".11" stop-color="#333"/><stop offset=".239" stop-color="#696969"/><stop offset=".37" stop-color="#969696"/><stop offset=".499" stop-color="#bcbcbc"/><stop offset=".628" stop-color="#d9d9d9"/><stop offset=".755" stop-color="#eee"/><stop offset=".88" stop-color="#fafafa"/><stop offset="1" stop-color="#fff"/></linearGradient><radialGradient id="B" cx=".5" cy=".5" r=".5" gradientTransform="matrix(0.707, 0.707, -0.707, 0.707, 0.5, -0.207)"><stop offset="0"/><stop offset=".156" stop-color="#3c3c3c"/><stop offset=".324" stop-color="#777"/><stop offset=".487" stop-color="#a7a7a7"/><stop offset=".64" stop-color="#cdcdcd"/><stop offset=".78" stop-color="#e8e8e8"/><stop offset=".905" stop-color="#f9f9f9"/><stop offset="1" stop-color="#fff"/></radialGradient><linearGradient id="C" x1=".146" y1=".146" x2=".854" y2=".854"><stop offset="0" stop-color="#fff"/><stop offset="1" stop-color="#f2f2f2"/></linearGradient><radialGradient id="D" xlink:href="#B"/><linearGradient id="E" y1=".5" x2="1" y2=".5"><stop offset="0" stop-color="#fff"/><stop offset=".12" stop-color="#fafafa"/><stop offset=".245" stop-color="#eee"/><stop offset=".372" stop-color="#d9d9d9"/><stop offset=".501" stop-color="#bcbcbc"/><stop offset=".63" stop-color="#969696"/><stop offset=".761" stop-color="#696969"/><stop offset=".89" stop-color="#333"/><stop offset="1"/></linearGradient><path id="F" d="M174.669 115.546H87.141c-23.48 0-42.514-19.034-42.514-42.514s19.034-42.514 42.514-42.514h87.528a42.59 42.59 0 0 1 39.7 27.312c1.571-6.228 4.104-12.173 7.506-17.621a57.49 57.49 0 0 0-47.209-24.7H87.138c-31.673.132-57.279 25.845-57.279 57.519s25.606 57.386 57.279 57.518h87.531a57.49 57.49 0 0 0 47.209-24.7 61.82 61.82 0 0 1-7.506-17.621 42.59 42.59 0 0 1-39.703 27.321z"/></defs><g transform="translate(-135 -1553)"><g transform="translate(229.001 1553)"><g transform="translate(734.492)"><g fill="#003e50"><path d="M341.508 23.017c0 4.142-2.872 7.5-6.413 7.5H207.862l.264.291c-8.769-9.488-20.488-15.3-33.345-15.3h160.314c3.54.006 6.413 3.366 6.413 7.509z"/><path d="M232.051 71.504l-.02-.511-.041-1.009-.039-.6-.061-.9-.058-.646-.081-.851-.076-.666-.1-.821-.094-.674-.12-.8-.113-.679-.138-.783-.131-.68-.157-.77q-.072-.34-.148-.679-.085-.379-.176-.757-.081-.34-.166-.678l-.194-.747-.182-.671-.213-.74-.2-.664-.232-.733-.213-.656-.252-.728-.228-.645-.274-.729-.239-.627-.3-.744-.244-.6-.355-.814-.223-.507q-.292-.645-.6-1.281l-.271-.546-.371-.742-.31-.587-.363-.68-.335-.6-.368-.651-.354-.6-.38-.632-.369-.591-.394-.62-.382-.581-.41-.61-.4-.571-.424-.6-.409-.561-.44-.588-.42-.548-.458-.581-.43-.534q-.235-.289-.476-.573l-.439-.519-.5-.568-.444-.5-.521-.567-.445-.478-.553-.571-.439-.449-.6-.59-.416-.406-.7-.658a57.3 57.3 0 0 0-39.014-15.3H87.02c-31.673.132-57.279 25.845-57.279 57.519s25.606 57.386 57.279 57.518h87.528c31.751-.036 57.482-25.767 57.518-57.518q.005-.763-.015-1.527zm-57.5 44.042H87.023c-23.48 0-42.514-19.034-42.514-42.514s19.034-42.514 42.514-42.514h87.528c23.48 0 42.514 19.034 42.514 42.514s-19.034 42.514-42.514 42.514z"/></g><path d="M247.623 15.514h-72.842a57.3 57.3 0 0 1 39.012 15.3 7.19 7.19 0 0 0-.309-.291h34.139z" opacity=".8" fill="url(#A)" style="mix-blend-mode:multiply"/><circle cx="67.994" cy="67.994" r="67.994" transform="matrix(.707107 -.707107 .707107 .707107 0 96.158)" fill="url(#B)" style="mix-blend-mode:multiply" class="D"/><path d="M87.252 115.547c-21.774-.024-39.99-16.537-42.145-38.204s12.452-41.444 33.795-45.756 42.482 8.243 48.908 29.047-3.95 43.094-24.007 51.569a42.26 42.26 0 0 1-16.551 3.344z" class="E"/><path d="M85.625 70.047a.9.9 0 0 0 .6-.839v-.041a.91.91 0 0 0-1.215-.859c-2.36.864-3.819 3.234-3.528 5.73s2.255 4.467 4.75 4.766 4.87-1.152 5.742-3.509a.91.91 0 0 0-.859-1.217h-.039a.9.9 0 0 0-.84.594c-.582 1.549-2.149 2.498-3.791 2.298a3.59 3.59 0 0 1-3.129-3.141c-.194-1.643.762-3.206 2.313-3.782zm2.435-4.638c.379.058.754-.124.944-.457h0c.15-.265.159-.586.026-.859s-.393-.463-.694-.508c-4.234-.627-8.392 1.531-10.317 5.353s-1.182 8.448 1.842 11.477 7.65 3.776 11.474 1.856 5.988-6.076 5.366-10.311c-.077-.504-.548-.85-1.052-.773s-.85.548-.773 1.051c.503 3.448-1.26 6.83-4.374 8.392A8.08 8.08 0 0 1 79.66 69.772a8.08 8.08 0 0 1 8.398-4.362zm11.376 3.568h0c-.371.21-.55.647-.434 1.057 1.532 5.51-.844 11.361-5.784 14.242s-11.202 2.07-15.244-1.976-4.848-10.309-1.961-15.246 8.74-7.307 14.248-5.769c.41.116.847-.062 1.057-.433h0a.92.92 0 0 0-.548-1.341 14.43 14.43 0 1 0 10.007 10.016.92.92 0 0 0-1.341-.549zm-8.216-1.218l-5 5a.92.92 0 0 0 0 1.305c.361.36.945.361 1.305 0l5-5 1.081-1.081a1.61 1.61 0 0 0 .276.024h3.553a1.59 1.59 0 0 0 1.134-.47l2.2-2.2a1.6 1.6 0 0 0-1.373-2.72l-.5.074-1.537.233.233-1.537.075-.5a1.6 1.6 0 0 0-2.72-1.374l-2.2 2.2a1.59 1.59 0 0 0-.471 1.134V66.4a1.59 1.59 0 0 0 .024.276zm2.9-4.81l1.609-1.609-.246 1.633a1.61 1.61 0 0 0 .453 1.372c.359.36.868.528 1.372.453l1.632-.246-1.609 1.609h-3.212v-3.212zm7.671-4.455c-.36-.36-.945-.36-1.305 0l-1.491 1.491a3 3 0 0 1 .041 1.112l-.027.179.18-.027a3.03 3.03 0 0 1 1.111.04l1.491-1.491a.92.92 0 0 0 0-1.304z" class="B"/><text class="C F G H"><tspan x="153.736" y="89">5.</tspan></text></g><g transform="translate(546.932)"><path d="M175.112 115.546H87.584c-23.48 0-42.514-19.034-42.514-42.514s19.034-42.514 42.514-42.514h87.528a42.59 42.59 0 0 1 39.7 27.312c1.571-6.228 4.104-12.173 7.506-17.621a57.49 57.49 0 0 0-47.209-24.7H87.581a57.52 57.52 0 0 0-50.013 86.347 57.52 57.52 0 0 0 50.013 28.69h87.528a57.49 57.49 0 0 0 47.209-24.7 61.82 61.82 0 0 1-7.506-17.621 42.59 42.59 0 0 1-39.7 27.321z" fill="#055167"/><circle cx="67.994" cy="67.994" r="67.994" transform="matrix(.707107 -.707107 .707107 .707107 0 96.158)" fill="url(#D)" style="mix-blend-mode:multiply" class="D"/><path d="M87.253 115.547c-21.777-.023-39.997-16.538-42.153-38.208s12.453-41.451 33.799-45.764 42.489 8.244 48.916 29.051-3.952 43.101-24.012 51.577c-5.236 2.216-10.865 3.354-16.55 3.344z" class="E"/><path d="M97.487 66.052a4.27 4.27 0 0 1-1.466 3.221l1.84 1.189c1.707-1.799 2.222-4.421 1.324-6.731s-3.05-3.896-5.524-4.069a7.71 7.71 0 0 1 1.35 2.516 4.28 4.28 0 0 1 2.476 3.874zm2.951 5.068l-.226 2.4 1.792 1.158-.935 9.942-2.32 1.643h-.01l-3.017 2.136h3.707l3.673-2.6 1.149-12.208zm-21.133-1.901a4.27 4.27 0 0 1 .906-6.964 7.69 7.69 0 0 1 1.365-2.585 6.41 6.41 0 0 0-5.391 4.091c-.872 2.279-.373 4.855 1.286 6.644zm-3.106 16.732l-1.884-1.335-.937-9.942 1.659-1.072-.225-2.4-3.682 2.378 1.149 12.208 3.675 2.6h3.564l-3.31-2.337zm11.422-14.614c2.764 0 5.256-1.664 6.315-4.218a6.83 6.83 0 0 0-1.481-7.448c-1.955-1.955-4.894-2.54-7.448-1.482s-4.219 3.55-4.219 6.314c.004 3.772 3.061 6.829 6.833 6.834zm0-11.39c1.843 0 3.505 1.11 4.21 2.813a4.56 4.56 0 0 1-.988 4.966c-1.303 1.303-3.264 1.693-4.967.987s-2.813-2.368-2.812-4.211c.005-2.514 2.043-4.55 4.557-4.553zm11.77 12.588l-4.32-2.792a9.17 9.17 0 0 1-1.558 1.7l3.482 2.25-1 10.6-2.473 1.752H81.716l-2.472-1.752-1-10.6 3.482-2.25a9.2 9.2 0 0 1-1.558-1.7l-4.32 2.792 1.225 13.015 3.917 2.774h13.255l3.917-2.774z" class="B"/><text class="C F G H"><tspan x="154.296" y="89">4.</tspan></text></g><g transform="translate(359.371)"><use xlink:href="#F" class="B"/><circle cx="67.994" cy="67.994" r="67.994" transform="matrix(.707107 -.707107 .707107 .707107 0 96.158)" fill="url(#D)" style="mix-blend-mode:multiply" class="D"/><path d="M87.141 116.028c-21.774-.023-39.991-16.536-42.146-38.203S57.447 36.38 78.789 32.068s42.483 8.242 48.909 29.046-3.95 43.094-24.007 51.57a42.26 42.26 0 0 1-16.55 3.344z" class="E"/><text class="C F G H"><tspan x="154.857" y="89">3.</tspan></text><path d="M98.114 59H83.361a5.08 5.08 0 0 0-5.071 5.071v2.591h-2.592a5.08 5.08 0 0 0-5.071 5.072v15.182c0 .385.233.733.589.88s.766.066 1.039-.206l3.552-3.551h14.644a5.08 5.08 0 0 0 5.076-5.072v-2.591h2.482l3.552 3.552c.273.272.683.354 1.039.206s.589-.495.589-.88V64.071A5.08 5.08 0 0 0 98.114 59zm3.164 17.951l-2.2-2.2a.95.95 0 0 0-.674-.279H83.361c-.84-.001-1.646-.335-2.239-.93a3.17 3.17 0 0 1-.925-2.242v-7.229a3.17 3.17 0 0 1 3.164-3.164h14.753a3.17 3.17 0 0 1 3.164 3.164zm-7.663 2.017a3.17 3.17 0 0 1-3.164 3.164H75.412a.95.95 0 0 0-.674.279l-2.2 2.2V71.734a3.17 3.17 0 0 1 3.16-3.164h2.592v2.73a5.08 5.08 0 0 0 5.071 5.071h10.254zm-7.671-11.351c0-.527-.427-.954-.954-.954s-.954.427-.954.954.427.954.954.954a.97.97 0 0 0 .954-.954zm3.839 0c0 .527.427.954.954.954s.954-.427.954-.954-.427-.954-.954-.954a.97.97 0 0 0-.954.954zm6.701-.954c-.527 0-.954.427-.954.954s.427.954.954.954.954-.427.954-.954c-.006-.524-.43-.948-.954-.954z" class="B"/></g><g transform="translate(-122)"><g class="C"><path d="M195.062 130.552H34.425c-3.548 0-6.426-3.36-6.426-7.5s2.878-7.5 6.426-7.5h127.49l-.131-.144c8.77 9.395 20.46 15.144 33.278 15.144z"/><path d="M283.045 115.546h-87.529c-23.48 0-42.514-19.034-42.514-42.514s19.034-42.514 42.514-42.514h87.528a42.58 42.58 0 0 1 39.7 27.315 61.9 61.9 0 0 1 7.505-17.627 57.5 57.5 0 0 0-47.209-24.692h-87.524c-31.752.036-57.483 25.767-57.518 57.519l.022 1.528c0 .172.012.341.019.51l.041 1.01c.009.2.025.4.037.6l.063.906.056.644.081.853.075.666.1.819.1.675.119.8a26.82 26.82 0 0 0 .112.681l.138.782.131.682.156.769.147.678.178.757.166.678.194.747.181.672.213.738.2.669.232.725.212.663.25.719.231.654.269.719.244.638.3.732.25.606c.109.266.228.532.344.794l.231.528.6 1.279c.09.191.187.378.281.566l.359.722c.1.2.213.4.316.6l.357.672.337.6q.183.328.366.647l.356.6.378.632.372.594.391.616.385.585.406.606c.134.2.266.385.4.575l.422.594.41.563.441.588.422.55.456.578.431.535c.156.194.316.384.475.572l.438.522.5.566.444.5.522.569.444.475c.181.194.369.384.553.572l.438.45.6.591.413.4.707.663a57.31 57.31 0 0 0 39.013 15.292h87.528a57.5 57.5 0 0 0 47.209-24.692 61.9 61.9 0 0 1-7.505-17.628 42.58 42.58 0 0 1-39.71 27.317z"/></g><path d="M156.207 115.403l.153.144h-34.139v15h72.842a57.3 57.3 0 0 1-38.856-15.144z" opacity=".5" fill="url(#E)" style="mix-blend-mode:multiply"/><g transform="translate(107.811)"><circle cx="67.994" cy="67.994" r="67.994" transform="matrix(.707107 -.707107 .707107 .707107 0 96.158)" fill="url(#D)" style="mix-blend-mode:multiply" class="D"/><path d="M87.702 116.028c-21.774-.025-39.99-16.538-42.144-38.205s12.454-41.444 33.797-45.755 42.482 8.245 48.907 29.049-3.953 43.094-24.01 51.568a42.26 42.26 0 0 1-16.55 3.343z" class="E"/></g><text class="C F G H"><tspan x="259.228" y="89">1.</tspan></text><g class="B"><path d="M204.558 77.113a2.71 2.71 0 0 0-2.02-4.522h-5.266c.45-1.488.7-3.029.744-4.583v-.9c-.001-1.998-1.62-3.619-3.618-3.621h-.9a.9.9 0 0 0-.877.685l-.502 1.971c-.69 2.76-2.882 5.806-5.15 6.359-.409-1.037-1.41-1.719-2.524-1.72h-5.426a.9.9 0 0 0-.9.9v16.279a.9.9 0 0 0 .9.9h5.426c1.046-.001 1.999-.603 2.449-1.547l3.107 1.036c1.014.339 2.077.511 3.146.511h7.582c.899 0 1.739-.445 2.244-1.189s.609-1.689.279-2.524a2.71 2.71 0 0 0 1.307-4.427 2.71 2.71 0 0 0 0-3.618zm-19.2 9.044c-.003.496-.404.897-.9.9h-4.53v-14.47h4.522c.496.003.897.404.9.9zm15.375-8.14h1.809c.5 0 .905.405.905.904s-.405.904-.905.904h-1.813c-.5 0-.904.405-.904.904s.405.904.904.904h1.809c.5 0 .904.405.904.904s-.405.904-.904.904h-1.809c-.5 0-.904.405-.904.904s.405.904.904.904.905.405.905.904-.405.904-.905.904h-7.577a8.12 8.12 0 0 1-2.575-.418l-3.415-1.138V74.314a7.29 7.29 0 0 0 4.057-2.638 13.2 13.2 0 0 0 2.655-5.094l.321-1.286h.2a1.81 1.81 0 0 1 1.809 1.809v.9a14.31 14.31 0 0 1-.866 4.583h-1.844c-.5 0-.905.405-.905.904s.405.904.905.904h9.044c.5 0 .904.405.904.904s-.405.904-.904.904h-1.809c-.5 0-.904.405-.904.904s.405.904.904.904z"/><circle cx="183.112" cy="84.583" r=".858"/><path d="M195.298 58a.9.9 0 0 0-.9.9v1.873c0 .5.405.905.904.905s.904-.405.904-.905V58.9a.9.9 0 0 0-.909-.9zm-3.832 3.987l-1.279-1.279c-.353-.353-.926-.353-1.279 0s-.353.926 0 1.279l1.279 1.279c.353.353.926.353 1.279 0s.353-.926 0-1.279zm10.231-1.279a.9.9 0 0 0-1.279 0l-1.279 1.279c-.353.353-.353.926 0 1.279s.926.353 1.279 0l1.279-1.279a.9.9 0 0 0 0-1.279z"/></g></g><g transform="translate(172.371)"><use xlink:href="#F" fill="rgba(15,96,119,0.76)"/><circle cx="67.994" cy="67.994" r="67.994" transform="matrix(.707107 -.707107 .707107 .707107 0 96.158)" fill="url(#D)" style="mix-blend-mode:multiply" class="D"/><path d="M87.141 116.028c-21.774-.023-39.991-16.536-42.146-38.203S57.447 36.38 78.789 32.068s42.483 8.242 48.909 29.046-3.95 43.094-24.007 51.57a42.26 42.26 0 0 1-16.55 3.344z" class="E"/><text class="C F G H"><tspan x="153.857" y="89">2.</tspan></text><path d="M101.097 76.393c3.281-3.288 3.281-8.612 0-11.9l-4.142-4.139a4.62 4.62 0 0 0-5.582-.727l-3.867 2.247-.444.444-3.078-2.225a4.6 4.6 0 0 0-5.968.477l-3.927 3.924c-3.281 3.288-3.281 8.612 0 11.9l10.6 10.6c.567.565 1.335.882 2.135.88 1.293.006 2.437-.837 2.813-2.074a2.97 2.97 0 0 0 3.014-.624 2.94 2.94 0 0 0 .8-1.281 2.97 2.97 0 0 0 3.015-.624 2.94 2.94 0 0 0 .8-1.281 2.97 2.97 0 0 0 3.014-.624c.577-.545.91-1.3.924-2.093s-.29-1.56-.846-2.126zm-2.112 3.61c-.445.4-1.126.378-1.544-.051l-7.129-7.129-1.322 1.322 6.207 6.209c.208.207.323.49.318.784s-.127.573-.34.774c-.447.4-1.131.374-1.547-.058l-6.176-6.176-1.324 1.325 5.257 5.251c.208.207.323.49.318.784s-.127.573-.34.774c-.445.4-1.126.378-1.544-.051l-5.223-5.223-1.322 1.322 4.3 4.3c.208.207.323.49.318.784s-.127.573-.34.774c-.445.4-1.126.378-1.544-.051l-10.6-10.6c-2.551-2.557-2.551-6.698 0-9.255l3.93-3.924c.951-.958 2.459-1.078 3.55-.283l2.834 2.049-3.206 3.206c-.565.564-.877 1.333-.866 2.131s.345 1.558.925 2.107a3 3 0 0 0 4.151-.087l2.423-2.423 9.858 9.858c.208.207.323.49.318.784s-.127.573-.34.774zm.79-4.932l-.749.748-9.876-9.877-3.745 3.745c-.418.429-1.099.451-1.544.051-.213-.202-.336-.481-.34-.774s.111-.576.318-.784l4.817-4.817 3.657-2.124a2.75 2.75 0 0 1 3.315.434l4.142 4.142c2.551 2.557 2.551 6.698 0 9.255z" class="B"/></g></g><g fill="#055167"><circle cx="879.209" cy="1712.473" r="5.208"/><circle cx="894.326" cy="1712.473" r="5.208"/><circle cx="909.444" cy="1712.473" r="5.208"/><circle cx="924.561" cy="1712.473" r="5.208"/></g><g class="B"><circle cx="699.209" cy="1712.473" r="5.208"/><circle cx="714.326" cy="1712.473" r="5.208"/><circle cx="5.208" cy="5.208" r="5.208" transform="matrix(.987089 -.160174 .160174 .987089 723.469 1708.166)"/></g><g fill="#498698"><circle cx="5.208" cy="5.208" r="5.208" transform="matrix(.383 -.924 .924 .383 514.002 1715.292)"/><circle cx="535.924" cy="1712.474" r="5.208"/></g><circle cx="340.209" cy="1712.473" r="5.208" class="C"/><path d="M135.447 1712.92h2.872c.247 0 .447-.2.447-.447s-.2-.447-.447-.447h-2.872c-.247 0-.447.2-.447.447s.2.447.447.447zm10.444-.89l-4.99-5.582a.44.44 0 0 0-.32-.154l-4.993-.129a.46.46 0 0 0-.439.314c-.076.195-.038.417.1.575l4.788 5.355-4.795 5.364a.57.57 0 0 0-.1.562.47.47 0 0 0 .422.327l5.007.129h.006a.45.45 0 0 0 .33-.152l5.11-5.716h187.849q-.016-.219-.016-.446 0-.227.016-.446zm-5.454 5.865l-4.084-.106 4.481-5.012c.181-.212.181-.524 0-.736l-4.436-4.962 4.032.1 4.792 5.36zm206.677-5.868q.019.218.019.445 0 .227-.019.445H514.7q-.018-.218-.019-.445-.001-.227.019-.445zm194.826 0q.019.218.019.445 0 .227-.019.445h151.12l-.019-.445.019-.445zm193.43 0l.019.446-.019.446h137.559q-.019-.219-.019-.446 0-.227.019-.446zm563.799-5.673c-.068-.082-.169-.129-.275-.129a.36.36 0 0 0-.276.129.5.5 0 0 0 0 .631l4.4 5.042h-172.55q.016.219.015.446-.001.227-.015.446h172.55l-4.4 5.041a.5.5 0 0 0 0 .631.37.37 0 0 0 .275.131c.107-.001.208-.049.276-.131l5.343-6.119zm-368.449 5.673q.018.218.017.445-.001.227-.017.445h127.368q-.018-.218-.018-.445 0-.227.018-.445z" fill="#ccc"/><g fill="#003e50"><circle cx="1064.209" cy="1712.473" r="5.208"/><circle cx="1079.326" cy="1712.473" r="5.208"/><circle cx="1094.444" cy="1712.473" r="5.208"/><circle cx="1109.561" cy="1712.473" r="5.208"/><circle cx="1124.561" cy="1712.473" r="5.208"/></g><text class="B I J"><tspan x="308.313" y="1751">Honesty</tspan><tspan x="493.742" y="1751">Integrity</tspan><tspan x="678.244" y="1747">Excellent</tspan><tspan x="649.952" y="1771">Communication</tspan><tspan x="865.174" y="1751">Flexibility</tspan><tspan x="1080.467" y="1752">Grit</tspan></text></g></svg>